{
	"asset":{
		"generator":"Khronos glTF Blender I/O v3.6.27",
		"version":"2.0"
	},
	"extensionsUsed":[
		"KHR_materials_specular",
		"KHR_materials_ior"
	],
	"scene":0,
	"scenes":[
		{
			"name":"Scene",
			"nodes":[
				0,
				1,
				2,
				3,
				4,
				5,
				6,
				7,
				8,
				9,
				10,
				11,
				12
			]
		}
	],
	"nodes":[
		{
			"mesh":0,
			"name":"cuerpo",
			"translation":[
				0,
				0.36993563175201416,
				0
			]
		},
		{
			"mesh":1,
			"name":"boton2",
			"rotation":[
				0.7071068286895752,
				0,
				0,
				0.7071068286895752
			],
			"scale":[
				0.10948634147644043,
				0.10948634147644043,
				0.10948634147644043
			],
			"translation":[
				1.1505334377288818,
				2.2708120346069336,
				0.99532151222229
			]
		},
		{
			"mesh":2,
			"name":"boton3",
			"rotation":[
				0.7071068286895752,
				0,
				0,
				0.7071068286895752
			],
			"scale":[
				0.1858275830745697,
				0.1858275830745697,
				0.1858275830745697
			],
			"translation":[
				0.5576925873756409,
				1.6273164749145508,
				0.9157434701919556
			]
		},
		{
			"mesh":3,
			"name":"boton4",
			"rotation":[
				0.7071068286895752,
				0,
				0,
				0.7071068286895752
			],
			"scale":[
				0.14740906655788422,
				0.14740906655788422,
				0.14740906655788422
			],
			"translation":[
				1.0320498943328857,
				1.680002212524414,
				0.9517393112182617
			]
		},
		{
			"mesh":4,
			"name":"boton5",
			"rotation":[
				0.7071068286895752,
				0,
				0,
				0.7071068286895752
			],
			"scale":[
				0.2384030520915985,
				0.2384030520915985,
				0.2384030520915985
			],
			"translation":[
				0.8087118864059448,
				0.982784628868103,
				0.8639497756958008
			]
		},
		{
			"mesh":5,
			"name":"cruz",
			"rotation":[
				0,
				0,
				-0.7071068286895752,
				0.7071068286895752
			],
			"scale":[
				0.3828396201133728,
				0.1208290383219719,
				0.1208290383219719
			],
			"translation":[
				-1.010983943939209,
				1.5335073471069336,
				0.9788468480110168
			]
		},
		{
			"mesh":6,
			"name":"boton1",
			"scale":[
				0.1852417141199112,
				0.1852417141199112,
				0.1852417141199112
			],
			"translation":[
				-0.4131712317466736,
				0.7889184951782227,
				1.0174401998519897
			]
		},
		{
			"mesh":7,
			"name":"ojos",
			"scale":[
				0.10197796672582626,
				0.10197796672582626,
				0.10197796672582626
			],
			"translation":[
				-0.5726792216300964,
				4.0276899337768555,
				0.8533976674079895
			]
		},
		{
			"mesh":8,
			"name":"pies",
			"scale":[
				0.14256520569324493,
				0.14256520569324493,
				0.14256520569324493
			],
			"translation":[
				-0.5726792216300964,
				0.21951590478420258,
				0.8533976674079895
			]
		},
		{
			"mesh":9,
			"name":"brazos",
			"scale":[
				0.1248493492603302,
				0.1248493492603302,
				0.1248493492603302
			],
			"translation":[
				-1.738005518913269,
				1.5914843082427979,
				0
			]
		},
		{
			"mesh":10,
			"name":"Text",
			"rotation":[
				0,
				0,
				-0.7071068286895752,
				0.7071068286895752
			],
			"translation":[
				1.7437777519226074,
				3.337700843811035,
				0.3527982234954834
			]
		},
		{
			"mesh":11,
			"name":"Text.001",
			"rotation":[
				0,
				0,
				-0.7071068286895752,
				0.7071068286895752
			],
			"translation":[
				-1.7376126050949097,
				3.337700843811035,
				0.3527982234954834
			]
		},
		{
			"mesh":12,
			"name":"piso",
			"translation":[
				0,
				0.04728027060627937,
				0
			]
		}
	],
	"materials":[
		{
			"doubleSided":true,
			"extensions":{
				"KHR_materials_specular":{
					"specularColorFactor":[
						1.8376864566545774,
						2.663869037590928,
						2.21730254890468
					]
				},
				"KHR_materials_ior":{
					"ior":1.4500000476837158
				}
			},
			"name":"01cuerpo",
			"pbrMetallicRoughness":{
				"baseColorFactor":[
					0.21291300654411316,
					0.6656656861305237,
					0.4209447503089905,
					1
				],
				"metallicFactor":0.158730149269104
			}
		},
		{
			"doubleSided":true,
			"extensions":{
				"KHR_materials_specular":{
					"specularColorFactor":[
						2.174036607740557,
						2.510217434456351,
						2.1301617144542035
					]
				},
				"KHR_materials_ior":{
					"ior":1.4500000476837158
				}
			},
			"name":"03pantalla",
			"pbrMetallicRoughness":{
				"baseColorFactor":[
					0.4559563100337982,
					0.6674190759658813,
					0.4283583462238312,
					1
				],
				"metallicFactor":0.158730149269104
			}
		},
		{
			"doubleSided":true,
			"extensions":{
				"KHR_materials_specular":{
					"specularColorFactor":[
						1.648162719088356,
						1.4532068852169324,
						10.049846675847313
					]
				},
				"KHR_materials_ior":{
					"ior":1.4500000476837158
				}
			},
			"name":"06azuloscuro",
			"pbrMetallicRoughness":{
				"baseColorFactor":[
					0.008717798627912998,
					0.00017715312424115837,
					0.3767796456813812,
					1
				],
				"metallicFactor":0.158730149269104
			}
		},
		{
			"doubleSided":true,
			"extensions":{
				"KHR_materials_specular":{
					"specularColorFactor":[
						1.6301593422581846,
						2.694270644422343,
						2.657474251105364
					]
				},
				"KHR_materials_ior":{
					"ior":1.4500000476837158
				}
			},
			"name":"08azulclaro",
			"pbrMetallicRoughness":{
				"baseColorFactor":[
					0.12260372191667557,
					0.8434140682220459,
					0.8184888362884521,
					1
				],
				"metallicFactor":0.158730149269104
			}
		},
		{
			"doubleSided":true,
			"extensions":{
				"KHR_materials_specular":{
					"specularColorFactor":[
						1.6289507796800247,
						2.8908035374439445,
						1.4819025807102404
					]
				},
				"KHR_materials_ior":{
					"ior":1.4500000476837158
				}
			},
			"name":"07verde",
			"pbrMetallicRoughness":{
				"baseColorFactor":[
					0.12457204610109329,
					0.9988896250724792,
					0.022684702649712563,
					1
				],
				"metallicFactor":0.158730149269104
			}
		},
		{
			"doubleSided":true,
			"extensions":{
				"KHR_materials_specular":{
					"specularColorFactor":[
						4.31567472016074,
						1.4645158612321603,
						1.9794568165387956
					]
				},
				"KHR_materials_ior":{
					"ior":1.4500000476837158
				}
			},
			"name":"09fucsia",
			"pbrMetallicRoughness":{
				"baseColorFactor":[
					0.9977800846099854,
					0.005344034638255835,
					0.18458552658557892,
					1
				],
				"metallicFactor":0.158730149269104
			}
		},
		{
			"doubleSided":true,
			"extensions":{
				"KHR_materials_specular":{
					"specularColorFactor":[
						2.505561196289663,
						2.457941890516968,
						1.4492412124431828
					]
				},
				"KHR_materials_ior":{
					"ior":1.4500000476837158
				}
			},
			"name":"05amarillo",
			"pbrMetallicRoughness":{
				"baseColorFactor":[
					0.5895270109176636,
					0.5629528760910034,
					4.36235532106366e-05,
					1
				],
				"metallicFactor":0.158730149269104
			}
		},
		{
			"doubleSided":true,
			"extensions":{
				"KHR_materials_specular":{
					"specularColorFactor":[
						1.4491630415701597,
						1.4491630415701597,
						1.4491630415701597
					]
				},
				"KHR_materials_ior":{
					"ior":1.4500000476837158
				}
			},
			"name":"02cara",
			"pbrMetallicRoughness":{
				"baseColorFactor":[
					0,
					0,
					0,
					1
				],
				"metallicFactor":0.158730149269104
			}
		},
		{
			"doubleSided":true,
			"extensions":{
				"KHR_materials_specular":{
					"specularColorFactor":[
						1.6636186319813717,
						2.7059481842708224,
						2.4870311428449265
					]
				},
				"KHR_materials_ior":{
					"ior":1.4500000476837158
				}
			},
			"name":"04extremidades",
			"pbrMetallicRoughness":{
				"baseColorFactor":[
					0.08034485578536987,
					0.47084909677505493,
					0.38883277773857117,
					1
				],
				"metallicFactor":0.158730149269104
			}
		}
	],
	"meshes":[
		{
			"name":"Cube",
			"primitives":[
				{
					"attributes":{
						"POSITION":0,
						"NORMAL":1,
						"TEXCOORD_0":2
					},
					"indices":3,
					"material":0
				},
				{
					"attributes":{
						"POSITION":4,
						"NORMAL":5,
						"TEXCOORD_0":6
					},
					"indices":7,
					"material":1
				}
			]
		},
		{
			"name":"Cylinder",
			"primitives":[
				{
					"attributes":{
						"POSITION":8,
						"NORMAL":9,
						"TEXCOORD_0":10
					},
					"indices":11,
					"material":2
				}
			]
		},
		{
			"name":"Cylinder.001",
			"primitives":[
				{
					"attributes":{
						"POSITION":12,
						"NORMAL":13,
						"TEXCOORD_0":14
					},
					"indices":15,
					"material":3
				}
			]
		},
		{
			"name":"Cylinder.002",
			"primitives":[
				{
					"attributes":{
						"POSITION":16,
						"NORMAL":17,
						"TEXCOORD_0":18
					},
					"indices":11,
					"material":4
				}
			]
		},
		{
			"name":"Cylinder.003",
			"primitives":[
				{
					"attributes":{
						"POSITION":19,
						"NORMAL":20,
						"TEXCOORD_0":21
					},
					"indices":11,
					"material":5
				}
			]
		},
		{
			"name":"Cube.003",
			"primitives":[
				{
					"attributes":{
						"POSITION":22,
						"NORMAL":23,
						"TEXCOORD_0":24
					},
					"indices":25,
					"material":6
				}
			]
		},
		{
			"name":"Cube.005",
			"primitives":[
				{
					"attributes":{
						"POSITION":26,
						"NORMAL":27,
						"TEXCOORD_0":28
					},
					"indices":29,
					"material":2
				}
			]
		},
		{
			"name":"Cube.006",
			"primitives":[
				{
					"attributes":{
						"POSITION":30,
						"NORMAL":31,
						"TEXCOORD_0":32
					},
					"indices":33,
					"material":7
				}
			]
		},
		{
			"name":"Cube.008",
			"primitives":[
				{
					"attributes":{
						"POSITION":34,
						"NORMAL":35,
						"TEXCOORD_0":36
					},
					"indices":37,
					"material":8
				}
			]
		},
		{
			"name":"Cube.009",
			"primitives":[
				{
					"attributes":{
						"POSITION":38,
						"NORMAL":39,
						"TEXCOORD_0":40
					},
					"indices":41,
					"material":8
				}
			]
		},
		{
			"name":"BMO",
			"primitives":[
				{
					"attributes":{
						"POSITION":42,
						"NORMAL":43,
						"TEXCOORD_0":44
					},
					"indices":45,
					"material":7
				}
			]
		},
		{
			"name":"BMO.001",
			"primitives":[
				{
					"attributes":{
						"POSITION":46,
						"NORMAL":47,
						"TEXCOORD_0":48
					},
					"indices":45,
					"material":7
				}
			]
		},
		{
			"name":"Cylinder.005",
			"primitives":[
				{
					"attributes":{
						"POSITION":49,
						"NORMAL":50,
						"TEXCOORD_0":51
					},
					"indices":11,
					"material":2
				}
			]
		}
	],
	"accessors":[
		{
			"bufferView":0,
			"componentType":5126,
			"count":3136,
			"max":[
				1.7362923622131348,
				4.5042009353637695,
				1
			],
			"min":[
				-1.7362923622131348,
				0,
				-1
			],
			"type":"VEC3"
		},
		{
			"bufferView":1,
			"componentType":5126,
			"count":3136,
			"type":"VEC3"
		},
		{
			"bufferView":2,
			"componentType":5126,
			"count":3136,
			"type":"VEC2"
		},
		{
			"bufferView":3,
			"componentType":5123,
			"count":6342,
			"type":"SCALAR"
		},
		{
			"bufferView":4,
			"componentType":5126,
			"count":36,
			"max":[
				1.3882476091384888,
				4.156156063079834,
				0.8538093566894531
			],
			"min":[
				-1.3882476091384888,
				2.3480677604675293,
				0.8538093566894531
			],
			"type":"VEC3"
		},
		{
			"bufferView":5,
			"componentType":5126,
			"count":36,
			"type":"VEC3"
		},
		{
			"bufferView":6,
			"componentType":5126,
			"count":36,
			"type":"VEC2"
		},
		{
			"bufferView":7,
			"componentType":5123,
			"count":102,
			"type":"SCALAR"
		},
		{
			"bufferView":8,
			"componentType":5126,
			"count":192,
			"max":[
				1,
				1,
				1
			],
			"min":[
				-1,
				-1,
				-1
			],
			"type":"VEC3"
		},
		{
			"bufferView":9,
			"componentType":5126,
			"count":192,
			"type":"VEC3"
		},
		{
			"bufferView":10,
			"componentType":5126,
			"count":192,
			"type":"VEC2"
		},
		{
			"bufferView":11,
			"componentType":5123,
			"count":372,
			"type":"SCALAR"
		},
		{
			"bufferView":12,
			"componentType":5126,
			"count":18,
			"max":[
				0.8660253882408142,
				1,
				0.5
			],
			"min":[
				-0.8660253882408142,
				-1,
				-1
			],
			"type":"VEC3"
		},
		{
			"bufferView":13,
			"componentType":5126,
			"count":18,
			"type":"VEC3"
		},
		{
			"bufferView":14,
			"componentType":5126,
			"count":18,
			"type":"VEC2"
		},
		{
			"bufferView":15,
			"componentType":5123,
			"count":24,
			"type":"SCALAR"
		},
		{
			"bufferView":16,
			"componentType":5126,
			"count":192,
			"max":[
				1,
				1,
				1
			],
			"min":[
				-1,
				-1,
				-1
			],
			"type":"VEC3"
		},
		{
			"bufferView":17,
			"componentType":5126,
			"count":192,
			"type":"VEC3"
		},
		{
			"bufferView":18,
			"componentType":5126,
			"count":192,
			"type":"VEC2"
		},
		{
			"bufferView":19,
			"componentType":5126,
			"count":192,
			"max":[
				1,
				1,
				1
			],
			"min":[
				-1,
				-1,
				-1
			],
			"type":"VEC3"
		},
		{
			"bufferView":20,
			"componentType":5126,
			"count":192,
			"type":"VEC3"
		},
		{
			"bufferView":21,
			"componentType":5126,
			"count":192,
			"type":"VEC2"
		},
		{
			"bufferView":22,
			"componentType":5126,
			"count":84,
			"max":[
				1,
				3.168440818786621,
				1
			],
			"min":[
				-1,
				-3.168440818786621,
				-1
			],
			"type":"VEC3"
		},
		{
			"bufferView":23,
			"componentType":5126,
			"count":84,
			"type":"VEC3"
		},
		{
			"bufferView":24,
			"componentType":5126,
			"count":84,
			"type":"VEC2"
		},
		{
			"bufferView":25,
			"componentType":5123,
			"count":156,
			"type":"SCALAR"
		},
		{
			"bufferView":26,
			"componentType":5126,
			"count":336,
			"max":[
				1.5131964683532715,
				0.4393652081489563,
				0.4393652081489563
			],
			"min":[
				-5.293460369110107,
				-0.4393652081489563,
				-0.4393656849861145
			],
			"type":"VEC3"
		},
		{
			"bufferView":27,
			"componentType":5126,
			"count":336,
			"type":"VEC3"
		},
		{
			"bufferView":28,
			"componentType":5126,
			"count":336,
			"type":"VEC2"
		},
		{
			"bufferView":29,
			"componentType":5123,
			"count":648,
			"type":"SCALAR"
		},
		{
			"bufferView":30,
			"componentType":5126,
			"count":18944,
			"max":[
				12.07093620300293,
				0.8395062685012817,
				1.2354769706726074
			],
			"min":[
				-0.8395062685012817,
				-5.466954231262207,
				-0.8395062685012817
			],
			"type":"VEC3"
		},
		{
			"bufferView":31,
			"componentType":5126,
			"count":18944,
			"type":"VEC3"
		},
		{
			"bufferView":32,
			"componentType":5126,
			"count":18944,
			"type":"VEC2"
		},
		{
			"bufferView":33,
			"componentType":5123,
			"count":28416,
			"type":"SCALAR"
		},
		{
			"bufferView":34,
			"componentType":5126,
			"count":5490,
			"max":[
				9.033926963806152,
				3.735985517501831,
				13.759668350219727
			],
			"min":[
				-1,
				-0.9166668057441711,
				-6.749883651733398
			],
			"type":"VEC3"
		},
		{
			"bufferView":35,
			"componentType":5126,
			"count":5490,
			"type":"VEC3"
		},
		{
			"bufferView":36,
			"componentType":5126,
			"count":5490,
			"type":"VEC2"
		},
		{
			"bufferView":37,
			"componentType":5123,
			"count":30720,
			"type":"SCALAR"
		},
		{
			"bufferView":38,
			"componentType":5126,
			"count":6450,
			"max":[
				38.69831466674805,
				13.22127914428711,
				0.9626205563545227
			],
			"min":[
				-10.856671333312988,
				-0.9166667461395264,
				-0.9626075625419617
			],
			"type":"VEC3"
		},
		{
			"bufferView":39,
			"componentType":5126,
			"count":6450,
			"type":"VEC3"
		},
		{
			"bufferView":40,
			"componentType":5126,
			"count":6450,
			"type":"VEC2"
		},
		{
			"bufferView":41,
			"componentType":5123,
			"count":34560,
			"type":"SCALAR"
		},
		{
			"bufferView":42,
			"componentType":5126,
			"count":217,
			"max":[
				2.122000217437744,
				0,
				0.009000000543892384
			],
			"min":[
				0.07500000298023224,
				0,
				-0.6910000443458557
			],
			"type":"VEC3"
		},
		{
			"bufferView":43,
			"componentType":5126,
			"count":217,
			"type":"VEC3"
		},
		{
			"bufferView":44,
			"componentType":5126,
			"count":217,
			"type":"VEC2"
		},
		{
			"bufferView":45,
			"componentType":5123,
			"count":651,
			"type":"SCALAR"
		},
		{
			"bufferView":46,
			"componentType":5126,
			"count":217,
			"max":[
				2.122000217437744,
				0,
				0.009000000543892384
			],
			"min":[
				0.07500000298023224,
				0,
				-0.6910000443458557
			],
			"type":"VEC3"
		},
		{
			"bufferView":47,
			"componentType":5126,
			"count":217,
			"type":"VEC3"
		},
		{
			"bufferView":48,
			"componentType":5126,
			"count":217,
			"type":"VEC2"
		},
		{
			"bufferView":49,
			"componentType":5126,
			"count":192,
			"max":[
				4.269999980926514,
				0.05000000074505806,
				4.269999980926514
			],
			"min":[
				-4.269999980926514,
				-0.05000000074505806,
				-4.269999980926514
			],
			"type":"VEC3"
		},
		{
			"bufferView":50,
			"componentType":5126,
			"count":192,
			"type":"VEC3"
		},
		{
			"bufferView":51,
			"componentType":5126,
			"count":192,
			"type":"VEC2"
		}
	],
	"bufferViews":[
		{
			"buffer":0,
			"byteLength":37632,
			"byteOffset":0,
			"target":34962
		},
		{
			"buffer":0,
			"byteLength":37632,
			"byteOffset":37632,
			"target":34962
		},
		{
			"buffer":0,
			"byteLength":25088,
			"byteOffset":75264,
			"target":34962
		},
		{
			"buffer":0,
			"byteLength":12684,
			"byteOffset":100352,
			"target":34963
		},
		{
			"buffer":0,
			"byteLength":432,
			"byteOffset":113036,
			"target":34962
		},
		{
			"buffer":0,
			"byteLength":432,
			"byteOffset":113468,
			"target":34962
		},
		{
			"buffer":0,
			"byteLength":288,
			"byteOffset":113900,
			"target":34962
		},
		{
			"buffer":0,
			"byteLength":204,
			"byteOffset":114188,
			"target":34963
		},
		{
			"buffer":0,
			"byteLength":2304,
			"byteOffset":114392,
			"target":34962
		},
		{
			"buffer":0,
			"byteLength":2304,
			"byteOffset":116696,
			"target":34962
		},
		{
			"buffer":0,
			"byteLength":1536,
			"byteOffset":119000,
			"target":34962
		},
		{
			"buffer":0,
			"byteLength":744,
			"byteOffset":120536,
			"target":34963
		},
		{
			"buffer":0,
			"byteLength":216,
			"byteOffset":121280,
			"target":34962
		},
		{
			"buffer":0,
			"byteLength":216,
			"byteOffset":121496,
			"target":34962
		},
		{
			"buffer":0,
			"byteLength":144,
			"byteOffset":121712,
			"target":34962
		},
		{
			"buffer":0,
			"byteLength":48,
			"byteOffset":121856,
			"target":34963
		},
		{
			"buffer":0,
			"byteLength":2304,
			"byteOffset":121904,
			"target":34962
		},
		{
			"buffer":0,
			"byteLength":2304,
			"byteOffset":124208,
			"target":34962
		},
		{
			"buffer":0,
			"byteLength":1536,
			"byteOffset":126512,
			"target":34962
		},
		{
			"buffer":0,
			"byteLength":2304,
			"byteOffset":128048,
			"target":34962
		},
		{
			"buffer":0,
			"byteLength":2304,
			"byteOffset":130352,
			"target":34962
		},
		{
			"buffer":0,
			"byteLength":1536,
			"byteOffset":132656,
			"target":34962
		},
		{
			"buffer":0,
			"byteLength":1008,
			"byteOffset":134192,
			"target":34962
		},
		{
			"buffer":0,
			"byteLength":1008,
			"byteOffset":135200,
			"target":34962
		},
		{
			"buffer":0,
			"byteLength":672,
			"byteOffset":136208,
			"target":34962
		},
		{
			"buffer":0,
			"byteLength":312,
			"byteOffset":136880,
			"target":34963
		},
		{
			"buffer":0,
			"byteLength":4032,
			"byteOffset":137192,
			"target":34962
		},
		{
			"buffer":0,
			"byteLength":4032,
			"byteOffset":141224,
			"target":34962
		},
		{
			"buffer":0,
			"byteLength":2688,
			"byteOffset":145256,
			"target":34962
		},
		{
			"buffer":0,
			"byteLength":1296,
			"byteOffset":147944,
			"target":34963
		},
		{
			"buffer":0,
			"byteLength":227328,
			"byteOffset":149240,
			"target":34962
		},
		{
			"buffer":0,
			"byteLength":227328,
			"byteOffset":376568,
			"target":34962
		},
		{
			"buffer":0,
			"byteLength":151552,
			"byteOffset":603896,
			"target":34962
		},
		{
			"buffer":0,
			"byteLength":56832,
			"byteOffset":755448,
			"target":34963
		},
		{
			"buffer":0,
			"byteLength":65880,
			"byteOffset":812280,
			"target":34962
		},
		{
			"buffer":0,
			"byteLength":65880,
			"byteOffset":878160,
			"target":34962
		},
		{
			"buffer":0,
			"byteLength":43920,
			"byteOffset":944040,
			"target":34962
		},
		{
			"buffer":0,
			"byteLength":61440,
			"byteOffset":987960,
			"target":34963
		},
		{
			"buffer":0,
			"byteLength":77400,
			"byteOffset":1049400,
			"target":34962
		},
		{
			"buffer":0,
			"byteLength":77400,
			"byteOffset":1126800,
			"target":34962
		},
		{
			"buffer":0,
			"byteLength":51600,
			"byteOffset":1204200,
			"target":34962
		},
		{
			"buffer":0,
			"byteLength":69120,
			"byteOffset":1255800,
			"target":34963
		},
		{
			"buffer":0,
			"byteLength":2604,
			"byteOffset":1324920,
			"target":34962
		},
		{
			"buffer":0,
			"byteLength":2604,
			"byteOffset":1327524,
			"target":34962
		},
		{
			"buffer":0,
			"byteLength":1736,
			"byteOffset":1330128,
			"target":34962
		},
		{
			"buffer":0,
			"byteLength":1302,
			"byteOffset":1331864,
			"target":34963
		},
		{
			"buffer":0,
			"byteLength":2604,
			"byteOffset":1333168,
			"target":34962
		},
		{
			"buffer":0,
			"byteLength":2604,
			"byteOffset":1335772,
			"target":34962
		},
		{
			"buffer":0,
			"byteLength":1736,
			"byteOffset":1338376,
			"target":34962
		},
		{
			"buffer":0,
			"byteLength":2304,
			"byteOffset":1340112,
			"target":34962
		},
		{
			"buffer":0,
			"byteLength":2304,
			"byteOffset":1342416,
			"target":34962
		},
		{
			"buffer":0,
			"byteLength":1536,
			"byteOffset":1344720,
			"target":34962
		}
	],
	"buffers":[
		{
			"byteLength":1346256,
			"uri":"data:application/octet-stream;base64,"
		}
	]
}
